<svg xmlns="http://www.w3.org/2000/svg" width="256" height="256" viewBox="0 0 256 256">
  <defs>
    <linearGradient id="g" x1="0" x2="1" y1="0" y2="1">
      <stop offset="0" stop-color="#0071e3"/>
      <stop offset="1" stop-color="#00c2ff"/>
    </linearGradient>
  </defs>
  <rect width="256" height="256" rx="36" fill="url(#g)"/>
  <g transform="translate(32,32) scale(0.75)" fill="#fff">
    <path d="M128 40a88 88 0 1 0 0 176 88 88 0 0 0 0-176zm0 16a72 72 0 1 1 0 144 72 72 0 0 1 0-144z" opacity="0.12"/>
    <path d="M64 160c0-35.3 28.7-64 64-64s64 28.7 64 64H64z"/>
    <circle cx="128" cy="96" r="10"/>
    <text x="128" y="210" font-family="Segoe UI, Arial, sans-serif" font-size="28" text-anchor="middle" fill="#ffffff" font-weight="700">leaEng</text>
  </g>
</svg>